<svg width="342" height="311" viewBox="0 0 342 311" fill="none" xmlns="http://www.w3.org/2000/svg">
<g id="Frame 1" clip-path="url(#clip0_0_1)">
<g id="Group 1">
<g id="Vector 1" filter="url(#filter0_d_0_1)">
<path d="M342.196 90.9674C342.395 49.1205 332.24 30.7171 322.196 26.4674L304.196 16.4674L282.696 7.46745L266.196 4.46745C254.871 2.15169 248.521 2.90604 237.196 4.46745C215.696 5.49265 206.305 11.3221 190.696 23.9674C171.254 45.4922 168.696 60.9674 172.196 77.4674M172.196 78.9674C172.841 86.5177 175.696 102.967 175.696 102.967L190.696 132.467C203.074 147.246 211.9 156.04 213.696 167.967L129.696 132.467C84.7426 116.647 64.8829 102.731 34.6957 72.9674C29.6508 97.8459 25.5176 111.508 34.6957 140.967C48.4412 165.272 54.5735 179.287 60.6957 205.467C39.3676 199.201 26.279 193.489 0.195745 177.967C-1.1563 201.879 4.00492 217.564 31.1957 252.467C126.278 323.863 122.742 314.315 132.696 311.467C70.9712 260.694 49.5079 238.628 52.6957 219.467L172.196 271.967C147.47 257.674 130.087 241.942 82.6957 177.967C71.6074 154.819 72.2127 148.28 74.1957 137.467C213.344 189.092 263.924 212.561 269.196 237.467V200.967C292.982 219.344 302.195 230.832 304.196 255.467C305.687 277.804 295.769 290.768 276.196 313.967C299.3 301.246 315.248 298.665 326.196 267.467C330.751 244.448 324.424 231.869 312.196 209.467L273.696 163.467C205.895 112.94 214.668 117.729 208.696 110.967C196.99 104.774 183.696 77.4674 183.696 77.4674L190.696 50.4674L208.696 26.4674L240.196 16.4674L276.196 26.4674C298.756 49.8705 304.869 58.7523 301.696 65.4674L339.696 90.9674" stroke="white" stroke-width="9"/>
</g>
<path id="Vector 3" d="M171.5 71L173.5 89" stroke="white" stroke-width="9"/>
</g>
</g>
<defs>
<filter id="filter0_d_0_1" x="-8.49988" y="-1.49982" width="359.199" height="327.514" filterUnits="userSpaceOnUse" color-interpolation-filters="sRGB">
<feFlood flood-opacity="0" result="BackgroundImageFix"/>
<feColorMatrix in="SourceAlpha" type="matrix" values="0 0 0 0 0 0 0 0 0 0 0 0 0 0 0 0 0 0 127 0" result="hardAlpha"/>
<feOffset dy="4"/>
<feGaussianBlur stdDeviation="2"/>
<feComposite in2="hardAlpha" operator="out"/>
<feColorMatrix type="matrix" values="0 0 0 0 0 0 0 0 0 0 0 0 0 0 0 0 0 0 0.25 0"/>
<feBlend mode="normal" in2="BackgroundImageFix" result="effect1_dropShadow_0_1"/>
<feBlend mode="normal" in="SourceGraphic" in2="effect1_dropShadow_0_1" result="shape"/>
</filter>
<clipPath id="clip0_0_1">
<rect width="342" height="311" fill="white"/>
</clipPath>
</defs>
</svg>
